<?xml version="1.0" encoding="UTF-8"?>
<svg width="33px" height="31px" viewBox="0 0 33 31" version="1.1" xmlns="http://www.w3.org/2000/svg" xmlns:xlink="http://www.w3.org/1999/xlink">
    <!-- Generator: Sketch 50.2 (55047) - http://www.bohemiancoding.com/sketch -->
    <title>o-nas</title>
    <desc>Created with Sketch.</desc>
    <defs></defs>
    <g id="Page-1" stroke="none" stroke-width="1" fill="none" fill-rule="evenodd">
        <g id="o-nas" transform="translate(0.000000, 1.000000)" stroke="#0074C3" stroke-width="2">
            <path d="M10.58,14.91 C6.7,18.72 3.16,22.46 1.12,27.06 C0.925804979,27.4196647 0.931570997,27.8542119 1.13524077,28.2085973 C1.33891054,28.5629827 1.71147311,28.7867272 2.12,28.8 L30.47,28.8 C30.8755539,28.7850191 31.2449528,28.5626839 31.4480484,28.2113286 C31.651144,27.8599732 31.6594349,27.4289051 31.47,27.07 C29.75,23.13 26.14,18.83 22.26,15.19 C22.0037972,14.9464705 21.8587491,14.6084777 21.8587491,14.255 C21.8587491,13.9015223 22.0037972,13.5635295 22.26,13.32 C25.1830505,10.20024 25.0939606,5.32122716 22.0589641,2.31026008 C19.0239676,-0.700706996 14.1444007,-0.751011809 11.047974,2.19674472 C7.95154733,5.14450125 7.76188884,10.0206404 10.62,13.2 C11.0648457,13.6894496 11.0472448,14.4418858 10.58,14.91 Z" id="Shape"></path>
        </g>
    </g>
</svg>