<?xml version="1.0" encoding="UTF-8"?>
<svg width="29px" height="28px" viewBox="0 0 29 28" version="1.1" xmlns="http://www.w3.org/2000/svg" xmlns:xlink="http://www.w3.org/1999/xlink">
    <!-- Generator: Sketch 50.2 (55047) - http://www.bohemiancoding.com/sketch -->
    <title>zvonok</title>
    <desc>Created with Sketch.</desc>
    <defs></defs>
    <g id="Page-1" stroke="none" stroke-width="1" fill="none" fill-rule="evenodd">
        <g id="zvonok" fill="#0074C3" fill-rule="nonzero">
            <path d="M5.91,2 L6,2 C6.51560465,2.35918708 6.97409332,2.79407707 7.36,3.29 C7.92,4 8.47,4.68 9,5.38 C9.43275159,5.93344534 9.80174718,6.53390179 10.1,7.17 L10.1,7.26 C9.66490192,7.53879722 9.21040745,7.78609568 8.74,8 C8.37,8.18 8.01,8.37 7.65,8.57 L7.52,8.64 C7.33706261,8.7454974 7.16313953,8.86590569 7,9 C6.10452009,9.60943321 5.78272204,10.7780682 6.24,11.76 C6.66970504,12.7539784 7.22054221,13.6910734 7.88,14.55 L8.04,14.77 C8.19871332,14.9920883 8.36894635,15.2057141 8.55,15.41 L8.95,15.86 C9.47,16.44 10.01,17.05 10.6,17.63 C11.5397617,18.5485987 12.5757372,19.3632978 13.69,20.06 C14.11,20.32 14.52,20.54 14.91,20.74 L15.47,21.04 C16.4237552,21.5837722 17.6277053,21.3879741 18.36,20.57 C18.66,20.25 18.73,20.17 18.91,19.94 L19.06,19.76 C19.24,19.54 19.4,19.32 19.56,19.09 C19.72,18.86 19.83,18.71 19.95,18.57 C20.1493036,18.3430837 20.3630837,18.1293036 20.59,17.93 C20.8753047,18.0329641 21.1527092,18.1566263 21.42,18.3 C22.3654573,18.8286882 23.2593557,19.4447081 24.09,20.14 L24.33,20.34 C24.9450297,20.7823895 25.5055885,21.2959554 26,21.87 L26.24,22.21 L26.15,22.37 C25.846761,22.8854078 25.4578539,23.3453328 25,23.73 C24.6192462,24.0609865 24.2184891,24.3682336 23.8,24.65 C23.3641812,24.9612764 22.8453663,25.1353754 22.31,25.15 L22.1,25.15 C20.5069178,25.010503 18.9414873,24.6469192 17.45,24.07 C16.2033876,23.6059321 15.0072278,23.0162287 13.88,22.31 C12.8,21.61 11.95,21.03 11.2,20.46 C10.45,19.89 9.72,19.24 9.1,18.68 C8.48,18.12 8.1,17.68 7.62,17.18 C7.14,16.68 6.45,15.82 6,15.28 C5.73,14.94 5.48,14.58 5.21,14.19 L5,13.91 C4.44844858,13.1181446 3.96345613,12.2819507 3.55,11.41 C3.19827746,10.7268043 2.90716174,10.0140727 2.68,9.28 C2.59,8.97 2.51,8.66 2.44,8.34 C2.37,8.02 2.27,7.68 2.18,7.34 C2.04172418,6.75042303 1.98121023,6.14528353 2,5.54 C2,5.48 2,5.37 2,5.26 L2,5.17 L2,5.06 C2.20928681,4.54949447 2.55530418,4.10659224 3,3.78 C3.42,3.42 3.81,3.11 4.19,2.83 C4.70166408,2.44044986 5.28667173,2.15814965 5.91,2 Z M5.91,3.88805063e-17 C5.75527991,-0.000576949668 5.60098286,0.0161944684 5.45,0.05 C4.56280065,0.270822437 3.72942751,0.668800628 3,1.22 C2.55,1.55 2.11,1.9 1.68,2.27 C0.994670487,2.82972005 0.470152262,3.56128494 0.16,4.39 C0.1,4.55 0.08,4.72 0.04,4.88 C-7.63278329e-17,5.04 0.04,5.41 0.04,5.49 C0.0160703221,6.29756396 0.100147516,7.10470502 0.29,7.89 C0.47,8.53 0.62,9.18 0.79,9.82 C1.04920094,10.6682178 1.38387199,11.4915086 1.79,12.28 C2.24949171,13.249266 2.78797594,14.1790711 3.4,15.06 C3.75,15.55 4.09,16.06 4.46,16.53 C5,17.21 5.55,17.88 6.13,18.53 C6.71,19.18 7.18,19.65 7.75,20.16 C8.47,20.81 9.2,21.46 9.97,22.05 C10.74,22.64 11.82,23.37 12.77,23.99 C14.0104228,24.7716975 15.3272132,25.4250668 16.7,25.94 C18.3672271,26.5877418 20.1180804,26.9951519 21.9,27.15 L22.28,27.15 C23.2030397,27.1338555 24.1006869,26.8450775 24.86,26.32 C25.3485335,25.9928915 25.8161143,25.6355262 26.26,25.25 C26.8935937,24.7188538 27.4313907,24.0829681 27.85,23.37 C27.9730729,23.1757044 28.0800943,22.9716948 28.17,22.76 C28.3390653,22.435168 28.3644499,22.0543997 28.24,21.71 C28.0505386,21.3574861 27.8296422,21.0227946 27.58,20.71 C26.9339724,19.9268471 26.1952317,19.2250434 25.38,18.62 C24.4439797,17.862023 23.4396789,17.1924891 22.38,16.62 C21.9410958,16.3472207 21.4793667,16.1130103 21,15.92 C20.8454209,15.867385 20.6832878,15.8403628 20.52,15.84 C20.1909679,15.8431775 19.8730981,15.9597297 19.62,16.17 C19.215684,16.4964209 18.8409027,16.8578172 18.5,17.25 C18.16,17.64 17.89,18.09 17.56,18.5 C17.3687135,18.746756 17.1651224,18.9837227 16.95,19.21 C16.8842266,19.2932091 16.7859063,19.34419 16.68,19.35 C16.6134376,19.3498204 16.5480288,19.3326076 16.49,19.3 C15.93,18.99 15.35,18.71 14.8,18.38 C13.789436,17.7545221 12.8504932,17.0201346 12,16.19 C11.31,15.52 10.68,14.78 10,14.07 C9.79,13.84 9.62,13.57 9.42,13.32 C8.88811721,12.6026851 8.4449019,11.8237006 8.1,11 C8.06534073,10.9438772 8.05644586,10.8755747 8.07557544,10.8124471 C8.09470502,10.7493195 8.1400176,10.6974435 8.2,10.67 C8.34018903,10.5617521 8.49095437,10.4679426 8.65,10.39 C9.69672346,9.91395592 10.7004423,9.34852765 11.65,8.7 C12.1003172,8.41095953 12.3482158,7.89192186 12.29,7.36 C12.2208048,7.01325406 12.1064996,6.67706246 11.95,6.36 C11.5897259,5.5889289 11.1435683,4.86098756 10.62,4.19 C10,3.44 9.48,2.73 8.91,2 C8.39022411,1.37334235 7.78023203,0.827382587 7.1,0.38 C6.75414879,0.136911534 6.34271216,0.0044149939 5.92,-4.05207009e-16 L5.91,3.88805063e-17 Z" id="Shape"></path>
        </g>
    </g>
</svg>